# xmcd
#
# Track frame offsets:
#	150
#	13804
#	22180
#	33406
#	61830
#	72490
#	87573
#	101944
#	113955
#	125019
#	135456
#	140138
#	151108
#	178506
#	192939
#	204080
#	212323
#	222983
#
# Disc length: 3083
#
# Revision: 1
# Processed by: cddbd v1.5.1PL0 Copyright (c) Steve Scherf et al.
# Submitted via: dBpowerAMP V4.0
# Normalized: r0:TRMNUM
#
DISCID=0c0c0912
DTITLE=Fats Domino - Blueberry Hill
DYEAR=1900
DGENRE=Blues
TTITLE0=Blueberry Hill
TTITLE1=I'm Ready
TTITLE2=Ain't That A Shame
TTITLE3=So Long
TTITLE4=Blue Monday
TTITLE5=Jambalaya(On The Bayou)
TTITLE6=I'm In The Mood For Love
TTITLE7=Let The Four Winds Blow
TTITLE8=I Want To Walk You Home
TTITLE9=I'm Gonna Be A Wheel Someday
TTITLE10=Whole Lotta Loving
TTITLE11=The Fat Man
TTITLE12=Please Don't Leave Me
TTITLE13=I'm In Love Again
TTITLE14=My Girl Josephine
TTITLE15=Red Sails In The Sunset
TTITLE16=Oh What A Price
TTITLE17=Be My Guest
EXTD=
EXTT0=
EXTT1=
EXTT2=
EXTT3=
EXTT4=
EXTT5=
EXTT6=
EXTT7=
EXTT8=
EXTT9=
EXTT10=
EXTT11=
EXTT12=
EXTT13=
EXTT14=
EXTT15=
EXTT16=
EXTT17=
PLAYORDER=
